<svg xmlns="http://www.w3.org/2000/svg" viewBox="0 0 360.84 107.83"><title>lnac-logo</title><path d="M56.76,4.37,52.09,15.9h9.29S56.76,4.37,56.76,4.37M49.92,21.28h-2L56.67,0h.15L65.6,21.28h-2l-1.44-3.61H51.38ZM34.48.49h2v19h9.79l-.74,1.78h-11Z" style="fill:#1c1c1c"/><polygon points="74.74 0.06 74.74 21.28 76.6 21.28 76.6 4.92 90.61 21.7 90.79 21.7 90.79 0.49 88.92 0.49 88.92 16.84 74.92 0.06 74.74 0.06" style="fill:#1c1c1c"/><path d="M114,10.88a8.59,8.59,0,1,0-17.18,0,8.59,8.59,0,1,0,17.18,0m-19.26,0a10.67,10.67,0,0,1,21.34,0,10.67,10.67,0,0,1-21.34,0" style="fill:#1c1c1c"/><path d="M119.86,14.21V.49h2V14.06c0,3.76,2.11,5.66,5.35,5.66s5.35-1.9,5.35-5.66V.49h2V14.21c0,4.84-3.15,7.31-7.34,7.31s-7.34-2.47-7.34-7.31" style="fill:#1c1c1c"/><polygon points="153.58 0.49 146.82 17.21 140.1 0.49 137.96 0.49 146.73 21.71 146.86 21.71 155.63 0.49 153.58 0.49" style="fill:#1c1c1c"/><polygon points="159.21 0.49 159.21 21.28 172.17 21.28 172.17 19.5 161.19 19.5 161.19 14.4 170.61 14.4 170.61 12.66 161.19 12.66 161.19 2.26 171.74 2.26 171.74 0.49 159.21 0.49" style="fill:#1c1c1c"/><polygon points="176.39 0.49 176.39 21.28 188.03 21.28 188.03 19.5 178.37 19.5 178.37 0.49 176.39 0.49" style="fill:#1c1c1c"/><polygon points="191.73 0.49 191.73 21.28 203.38 21.28 203.38 19.5 193.72 19.5 193.72 0.49 191.73 0.49" style="fill:#1c1c1c"/><polygon points="207.08 0.49 207.08 21.28 220.04 21.28 220.04 19.5 209.07 19.5 209.07 14.4 218.48 14.4 218.48 12.66 209.07 12.66 209.07 2.26 219.61 2.26 219.61 0.49 207.08 0.49" style="fill:#1c1c1c"/><polygon points="141.32 99.3 141.32 107.66 146.53 107.66 146.53 106.95 142.12 106.95 142.12 104.89 145.9 104.89 145.9 104.19 142.12 104.19 142.12 100.01 146.36 100.01 146.36 99.3 141.32 99.3" style="fill:#1c1c1c"/><polygon points="154.39 99.13 154.39 107.66 155.14 107.66 155.14 101.08 160.77 107.83 160.84 107.83 160.84 99.3 160.09 99.3 160.09 105.88 154.46 99.13 154.39 99.13" style="fill:#1c1c1c"/><polygon points="168.38 99.3 168.38 100.01 170.97 100.01 170.97 107.66 171.77 107.66 171.77 100.01 174.36 100.01 174.36 99.3 168.38 99.3" style="fill:#1c1c1c"/><path d="M183.66,104.87c1.91,0,2.67-1,2.67-2.42s-.77-2.44-2.67-2.44h-1v4.86Zm3.37,2.79h-1l-1.66-2.14a3.8,3.8,0,0,1-.69,0h-1v2.09h-.8V99.3h1.82c2.28,0,3.46,1.34,3.46,3.15a2.9,2.9,0,0,1-2,2.89Z" style="fill:#1c1c1c"/><path d="M197.79,100.86l-1.88,4.64h3.73s-1.85-4.64-1.85-4.64m-2.75,6.8h-.8l3.51-8.56h.06l3.53,8.56h-.82l-.58-1.45h-4.31Z" style="fill:#1c1c1c"/><rect x="208.99" y="99.3" width="0.81" height="8.36" style="fill:#1c1c1c"/><path d="M220.17,106.94c2.47,0,3.65-1.43,3.65-3.46s-1.18-3.45-3.65-3.45H219v6.91Zm-2-7.64h2.09c2.77,0,4.41,1.71,4.41,4.18s-1.63,4.18-4.41,4.18h-2.09Z" style="fill:#1c1c1c"/><polygon points="232.44 99.3 232.44 107.66 237.65 107.66 237.65 106.95 233.24 106.95 233.24 104.89 237.02 104.89 237.02 104.19 233.24 104.19 233.24 100.01 237.48 100.01 237.48 99.3 232.44 99.3" style="fill:#1c1c1c"/><path d="M257.31,100.86a.9.9,0,0,0-.91-1,.94.94,0,0,0-1,1,1.81,1.81,0,0,0,.5,1.16l.22.27c.7-.41,1.18-.82,1.18-1.46m-1.43,2.38c-1,.58-1.77,1.11-1.77,2.2a1.68,1.68,0,0,0,1.89,1.62,2.43,2.43,0,0,0,2.11-1.1Zm2.61,2a6,6,0,0,0,.34-2.12h.74a6.12,6.12,0,0,1-.57,2.74l1.47,1.81h-1l-.91-1.12a3.17,3.17,0,0,1-2.57,1.22,2.42,2.42,0,0,1-2.71-2.32c0-1.39,1-2.06,2.16-2.73l-.15-.19a2.52,2.52,0,0,1-.66-1.63,1.66,1.66,0,0,1,1.76-1.69,1.58,1.58,0,0,1,1.67,1.66c0,.81-.62,1.43-1.51,2Z" style="fill:#1c1c1c"/><path d="M278.06,104.86c1.91,0,2.67-1,2.67-2.41S280,100,278.06,100h-.95v4.85Zm-.95,2.8h-.8V99.3h1.8c2.26,0,3.44,1.34,3.44,3.15s-1.18,3.12-3.44,3.12h-1Z" style="fill:#1c1c1c"/><path d="M291.41,100.86l-1.88,4.64h3.74s-1.86-4.64-1.86-4.64m-2.75,6.8h-.8l3.51-8.56h.07l3.53,8.56h-.83l-.58-1.45h-4.31Z" style="fill:#1c1c1c"/><path d="M304.34,104.87c1.9,0,2.66-1,2.66-2.42s-.77-2.44-2.66-2.44h-1v4.86Zm3.36,2.79h-1l-1.66-2.14a3.75,3.75,0,0,1-.68,0h-1v2.09h-.8V99.3h1.83c2.27,0,3.45,1.34,3.45,3.15a2.89,2.89,0,0,1-1.95,2.89Z" style="fill:#1c1c1c"/><polygon points="314.66 99.3 314.66 100.01 317.26 100.01 317.26 107.66 318.06 107.66 318.06 100.01 320.64 100.01 320.64 99.3 314.66 99.3" style="fill:#1c1c1c"/><path d="M330,100.86l-1.88,4.64h3.74s-1.86-4.64-1.86-4.64m-2.75,6.8h-.8L330,99.1H330l3.53,8.56h-.83l-.57-1.45h-4.32Z" style="fill:#1c1c1c"/><path d="M340,103.48a4.19,4.19,0,0,1,4.24-4.28,4,4,0,0,1,3.15,1.3l-.57.54a3.16,3.16,0,0,0-2.6-1.11,3.37,3.37,0,0,0-3.38,3.55,3.42,3.42,0,0,0,3.52,3.55,3.73,3.73,0,0,0,2.55-.81v-1.31h-2.52v-.72h3.28v2.4a4.61,4.61,0,0,1-3.31,1.17,4.23,4.23,0,0,1-4.36-4.28" style="fill:#1c1c1c"/><polygon points="355.62 99.3 355.62 107.66 360.83 107.66 360.83 106.95 356.42 106.95 356.42 104.89 360.21 104.89 360.21 104.19 356.42 104.19 356.42 100.01 360.66 100.01 360.66 99.3 355.62 99.3" style="fill:#1c1c1c"/><path d="M22.69,57.5,18,68.4h9.52ZM12.28,81.78H0L22.83,34.05c.21-.49.62-.49.83,0L46.43,81.78h-13l-1.8-4H14Z" style="fill:#3d3d3b"/><path d="M68.45,82.4C55.28,82.4,44,72.47,44,58.33a23.65,23.65,0,0,1,23.72-24c10.14,0,16.35,4.28,20.29,10.07l-9.46,6.42C76.8,48.05,73.9,45.22,68,45.22c-6.9,0-11.11,5.73-11.11,13.11s4.35,13.18,11.52,13.18c6.08,0,9-2.76,11-6.49l9.66,6.21C84.46,79,78,82.4,68.45,82.4" style="fill:#3d3d3b"/><path d="M112.15,57.5l-4.69,10.9H117ZM101.73,81.78H89.45l22.83-47.73c.21-.49.63-.49.83,0l22.77,47.73h-13l-1.8-4H103.45Z" style="fill:#3d3d3b"/><path d="M157,71.16c7.59,0,12.28-5,12.28-12.83S164.6,45.5,157,45.5H152.8V71.16ZM140.25,34.88h18.14c13.52,0,23.73,8.89,23.73,23.45s-10.21,23.45-23.73,23.45H140.25Z" style="fill:#3d3d3b"/><polygon points="187.73 34.88 220.64 34.88 220.64 45.43 200.29 45.43 200.29 56.33 217.26 56.33 217.26 66.33 200.29 66.33 200.29 71.23 221.6 71.23 221.6 81.78 187.73 81.78 187.73 34.88" style="fill:#3d3d3b"/><rect x="304.78" y="34.88" width="12.56" height="46.91" style="fill:#3d3d3b"/><polygon points="325.76 34.88 358.67 34.88 358.67 45.43 338.32 45.43 338.32 56.33 355.29 56.33 355.29 66.33 338.32 66.33 338.32 71.23 359.63 71.23 359.63 81.78 325.76 81.78 325.76 34.88" style="fill:#3d3d3b"/><path d="M282.28,71.79h-6.87V44.89h6.87Zm-36.51-26.9h6.87v26.9h-6.87Zm21.69,26.9h-6.87V44.89h6.87ZM297,44.89V39.25L264.39,25.92,231.76,39.25h-.34v5.64h6.41v26.9h-2v4.36h-4.39v5.63H297V76.15h-4.4V71.79h-2.39V44.89Z" style="fill:blue"/></svg>