<svg xmlns="http://www.w3.org/2000/svg" viewBox="0 0 10 128.02"><title>platon-side</title><path d="M37.63,57.24a2,2,0,0,0-.51-2.66,12.68,12.68,0,0,0-7.5-2.66c-5.59,0-9.26,4.26-9.42,4.44a2,2,0,0,0,.24,2.82,1.44,1.44,0,0,0,.25.18,15.52,15.52,0,0,0,8,2.56,10.85,10.85,0,0,0,8.89-4.68m-8-1.32a7.66,7.66,0,0,1,3.09.7,6.56,6.56,0,0,1-4,1.3,9.46,9.46,0,0,1-3.36-.68,8.07,8.07,0,0,1,4.26-1.32Z" fill="currentColor"/><path d="M18.72,52.92a1.9,1.9,0,0,0,1.17-.37c.09-.06,9.2-6.35,17-1.52a2,2,0,0,0,2.64-.43l2-2.41a2,2,0,0,0-3.11-2.56l0,0-.91,1.11C27.86,42.18,18,49,17.54,49.29a2,2,0,0,0-.48,2.79h0a2,2,0,0,0,1.66.84" fill="currentColor"/><path d="M48,91.87H40a2,2,0,0,0,0,4h8a2,2,0,0,0,0-4" fill="currentColor"/><path d="M32.36,81a2,2,0,0,0-1.64-3.65h0A16.69,16.69,0,0,0,21.4,92.91a2,2,0,0,0,4,0,12.7,12.7,0,0,1,7-11.87" fill="currentColor"/><path d="M17.7,79.89a2,2,0,0,0-2,2v4a2,2,0,0,0,4,0v-4a2,2,0,0,0-2-2" fill="currentColor"/><path d="M37.41,106.52a2,2,0,0,0-2.82-.17l0,0a5.09,5.09,0,0,0-1.28,5.82c.32.72,1.24,3.14-.26,3.85a2,2,0,0,0,1.71,3.62l0,0c3.11-1.47,4-5,2.22-9a1.18,1.18,0,0,1,.31-1.29,2,2,0,0,0,.13-2.82v0" fill="currentColor"/><path d="M45.91,100.16a2,2,0,0,0-2.76.63l0,0a10.94,10.94,0,0,0-1,7.89c1.26,5.19.58,8.62-.59,9.62a2,2,0,0,0,2.61,3.06l0,0c2.69-2.3,3.4-7.37,1.88-13.58a6.89,6.89,0,0,1,.55-4.88,2,2,0,0,0-.7-2.74" fill="currentColor"/><path d="M49.05,23a2,2,0,0,0,1,1.65V21.29A2,2,0,0,0,49.05,23Z" fill="currentColor"/><path d="M50,123.31a29.12,29.12,0,0,1-6.09.5c-2.69-.06-6.44-.27-8.8-1.34-3.92-2.42-5.81-3.22-6.77-3.49a12.91,12.91,0,0,1-2.28-2.39c-.45-1.49-1.92-5.83-4.3-7.56a4.77,4.77,0,0,1-1.64-3c-.05-.63-.39-3.82-2.29-5.64a7.08,7.08,0,0,1-1.54-2.82,16.24,16.24,0,0,0-.57-4.7A18.35,18.35,0,0,0,13.34,89c-1.63-1.87-1.7-6.9-1.36-9.63a2.06,2.06,0,0,0-.08-.85c-.73-2.26-.92-5.35-.08-6a2,2,0,0,0,.83-1.61V50c1.55-1.09,3.86-3.58,3.56-8.59a15.39,15.39,0,0,0,5.52-6.93l.76-.28A57,57,0,0,1,50,30.52V26.58A61.61,61.61,0,0,0,23.05,29.8,25.7,25.7,0,0,0,23.39,26a2.4,2.4,0,0,0-.05-.46,4.75,4.75,0,0,0-.09-1.14,12.79,12.79,0,0,0,4.93-5.52C37.73,17,40.05,9.24,40,4.25c.79-.07,1.59-.15,2.41-.2L43.61,4C44.05,6.4,45.14,16.05,35.32,19A2,2,0,0,0,34,21.53h0A2,2,0,0,0,35.91,23a2,2,0,0,0,.6-.09,16.3,16.3,0,0,0,7.08-4.14A19.35,19.35,0,0,0,50,17.59V13.3a14.11,14.11,0,0,1-3.52,1.14A19.19,19.19,0,0,0,47.73,4.06c.76,0,1.51.09,2.27.16v-4A57.83,57.83,0,0,0,42.1.06C24,1.29,11.56,7,5.2,17-2.36,29,1,43.23,2.74,48.56A6.21,6.21,0,0,0,.61,51c-1.7,3.63.51,8.13,2.29,11.74,1.17,2.38,1.37,5.21,2.42,7.68a6.49,6.49,0,0,0,2,2.55,15.4,15.4,0,0,0,.58,6.26c-.2,1.94-.65,8.84,2.35,12.29A14.31,14.31,0,0,1,12,94.37a19.24,19.24,0,0,1,.26,3.3v.18a9.23,9.23,0,0,0,2.17,4.6,6.57,6.57,0,0,1,1.66,3.79,8.6,8.6,0,0,0,3.24,6,6.19,6.19,0,0,1,2,3,14.6,14.6,0,0,0,1.25,3.34c1.12,1.62,2.76,3.71,4.78,4.24A38.74,38.74,0,0,1,33.07,126l.21.11c4.94,2.33,11.41,2.23,16.72,1.36ZM35.92,4.73H36c0,2.69-1,8-7.12,9.88a13.55,13.55,0,0,0-3.74-7.37A60.44,60.44,0,0,1,35.92,4.73ZM21,8.85c1.14,1,4,3.85,3.83,6.87a6.29,6.29,0,0,1-2.65,4.46,10.38,10.38,0,0,0-3.54-4.56,11.19,11.19,0,0,0-5.31-1.91A31.82,31.82,0,0,1,21,8.85ZM8.64,19.11c.27-.42.57-.83.86-1.24,1.06-.22,4.37-.71,6.77,1,1.86,1.32,2.88,3.77,3.06,7.27a18.88,18.88,0,0,1-1.27,6.65,7.28,7.28,0,0,1-5.81-1.21C8.3,28.64,7.6,21.9,7.58,21.77a2,2,0,0,0-.13-.53C7.81,20.52,8.2,19.81,8.64,19.11Zm0,47.77a13.72,13.72,0,0,0-.53-2.45A31.27,31.27,0,0,0,6.54,61c-1.33-2.66-3.15-6.37-2.26-8.27h0A3.73,3.73,0,0,1,6.91,51a8.78,8.78,0,0,1,1.7-.1ZM9.92,47H9.87a13.41,13.41,0,0,0-3.35,0c-1.08-3.5-2.84-11-1.4-18.73A14.86,14.86,0,0,0,9.8,34.76a10.72,10.72,0,0,0,5.64,2.12,7.87,7.87,0,0,1-2.16,1.64,2,2,0,0,0-1.21,2.11C12.77,45.63,10.18,46.9,9.92,47Z" fill="currentColor"/><path d="M50,71.31a8,8,0,0,0-3.1,1.09,5,5,0,0,1-5-.42l-.17-.11a5.92,5.92,0,0,0-4.22-.64,3.94,3.94,0,0,1-1.37,0l.23-.24c.26-.27.53-.55.79-.86a2,2,0,0,0-3.09-2.57l0,0c-.19.22-.39.43-.58.62a4.29,4.29,0,0,0-1.59,3.08,4,4,0,0,0,1.48,2.85,5.23,5.23,0,0,0,4.66,1,4.69,4.69,0,0,1,1.4,0,9.07,9.07,0,0,0,5.34,1.74,9.41,9.41,0,0,0,4-.92,1.92,1.92,0,0,0,.31-.18,3.94,3.94,0,0,1,.94-.41Z" fill="currentColor"/><path d="M50,46.14l-.38-.47a2,2,0,0,0-2.81-.32l0,0a2,2,0,0,0-.29,2.81l2,2.41a2,2,0,0,0,1.52.7Z" fill="currentColor"/><path d="M50,84.11a11,11,0,0,0-2.63-.23,10.93,10.93,0,0,0-2.9.36,4.76,4.76,0,0,1-1.4.22c-4.55-.89-8-.26-10.3,1.88-3.22,3-2.54,7.79-2.51,8a1.64,1.64,0,0,0,.1.38c.54,1.26-.66,2.26-1.12,2.6a4.76,4.76,0,0,0-3,2.68c-1.21,2.87.75,6.45,1,6.84a2,2,0,0,0,2.72.78l0,0a2,2,0,0,0,.77-2.72c-.51-.89-1.08-2.6-.77-3.34,0-.09.13-.31.73-.47a1.7,1.7,0,0,0,.52-.22c1.61-1,4.28-3.7,3.17-7.24-.05-.62-.15-3,1.33-4.39s4.52-1.27,6.71-.84a7.72,7.72,0,0,0,3.24-.28,8.24,8.24,0,0,1,4.3.14Z"/></svg>