<?xml version="1.0" encoding="UTF-8"?>
<svg id="Calque_2" data-name="Calque 2" xmlns="http://www.w3.org/2000/svg" viewBox="0 0 1 128.02">
  <defs>
    <style>
      .cls-1 {
        fill: rgb(191 219 254);
        stroke-width: 0px;
      }
    </style>
  </defs>
  <g id="Layer_2" data-name="Layer 2">
    <g>
      <path class="cls-1" d="m37.63,57.24c.55-.88.33-2.04-.51-2.66-2.15-1.67-4.78-2.61-7.5-2.66-5.59,0-9.26,4.26-9.42,4.44-.71.84-.61,2.11.24,2.82.08.07.16.13.25.18,2.39,1.58,5.18,2.47,8.05,2.56,3.55-.01,6.87-1.76,8.89-4.68m-8-1.32c1.07.01,2.12.25,3.09.7-1.16.86-2.56,1.31-4,1.3-1.15-.02-2.29-.25-3.36-.68,1.27-.83,2.74-1.29,4.26-1.32h.01Z"/>
      <path class="cls-1" d="m18.72,52.92c.42,0,.83-.13,1.17-.37.09-.06,9.2-6.35,17-1.52.86.55,2,.37,2.64-.43l2-2.41c.69-.86.57-2.11-.29-2.81-.85-.71-2.11-.6-2.82.25-.01.01-.02.03-.03.04l-.91,1.11c-9.62-4.6-19.48,2.2-19.94,2.51-.9.64-1.12,1.88-.48,2.79,0,0,0,0,0,0,.38.54,1,.85,1.66.84"/>
      <path class="cls-1" d="m48,91.87h-8c-1.11,0-2,.9-2,2s.89,2,2,2h8c1.1,0,2-.9,2-2s-.9-2-2-2"/>
      <path class="cls-1" d="m32.36,81.04c1-.45,1.45-1.63,1-2.64-.45-1.01-1.63-1.46-2.64-1.01,0,0-.02,0-.03.01-5.88,2.9-9.51,8.96-9.29,15.51,0,1.1.9,2,2,2s2-.9,2-2c-.21-4.98,2.51-9.62,6.96-11.87"/>
      <path class="cls-1" d="m17.7,79.89c-1.1,0-2,.9-2,2v4c0,1.1.9,2,2,2s2-.9,2-2v-4c0-1.1-.9-2-2-2"/>
      <path class="cls-1" d="m37.41,106.52c-.73-.83-2-.9-2.82-.17-.01.01-.02.02-.04.03-1.64,1.46-2.15,3.81-1.28,5.82.32.72,1.24,3.14-.26,3.85-1,.47-1.42,1.66-.95,2.66.47,1,1.66,1.43,2.66.96.01,0,.03-.01.04-.02,3.11-1.47,4-5,2.22-9-.17-.45-.05-.97.31-1.29.82-.74.88-2.01.13-2.82,0,0,0-.01-.01-.02"/>
      <path class="cls-1" d="m45.91,100.16c-.94-.59-2.17-.31-2.76.62,0,.01-.01.02-.02.04-1.31,2.41-1.67,5.23-1,7.89,1.26,5.19.58,8.62-.59,9.62-.84.72-.93,1.98-.21,2.82.71.84,1.98.95,2.82.24.01,0,.02-.02.03-.03,2.69-2.3,3.4-7.37,1.88-13.58-.42-1.64-.23-3.38.55-4.88.56-.95.25-2.18-.7-2.74"/>
      <path class="cls-1" d="m50,.24c-2.63-.23-5.26-.31-7.9-.18C24,1.29,11.56,6.98,5.2,16.98-2.36,28.98,1,43.23,2.74,48.56c-.91.61-1.65,1.44-2.13,2.42-1.7,3.63.51,8.13,2.29,11.74,1.17,2.38,1.37,5.21,2.42,7.68.44,1,1.13,1.88,2,2.55-.24,2.1-.04,4.24.58,6.26-.2,1.94-.65,8.84,2.35,12.29.7.88,1.28,1.85,1.75,2.87.18,1.09.27,2.19.26,3.3v.18c.28,1.71,1.03,3.3,2.17,4.6.95,1.05,1.53,2.38,1.66,3.79.21,2.36,1.38,4.53,3.24,6,.95.78,1.65,1.82,2,3,.28,1.16.7,2.28,1.25,3.34,1.12,1.62,2.76,3.71,4.78,4.24,1.99.89,3.9,1.95,5.71,3.16l.21.11c4.94,2.32,11.41,2.23,16.72,1.36v-4.14c-2.03.4-4.31.54-6.09.5-2.69-.06-6.44-.27-8.8-1.34-3.92-2.42-5.81-3.22-6.77-3.49-.86-.7-1.62-1.5-2.28-2.39-.45-1.49-1.92-5.83-4.3-7.56-.91-.78-1.49-1.86-1.64-3.05-.05-.63-.39-3.82-2.29-5.64-.72-.81-1.25-1.78-1.54-2.82.04-1.59-.15-3.17-.57-4.7-.63-1.38-1.43-2.66-2.38-3.84-1.63-1.87-1.7-6.9-1.36-9.63.03-.29,0-.58-.08-.85-.73-2.26-.92-5.35-.08-6,.52-.37.83-.97.83-1.61v-20.91c1.55-1.09,3.86-3.58,3.56-8.59,2.48-1.72,4.4-4.13,5.52-6.93l.76-.28c4.17-1.54,14.46-5.33,27.51-3.67v-3.93c-8.68-.99-17.69.08-26.95,3.22.21-1.26.32-2.54.34-3.82,0-.16-.01-.31-.05-.46,0-.39,0-.78-.09-1.14,2.15-1.32,3.86-3.24,4.93-5.52,9.55-1.88,11.87-9.62,11.82-14.61.79-.07,1.59-.15,2.41-.2l1.2-.07c.44,2.42,1.53,12.07-8.29,15.05-1.06.33-1.65,1.44-1.32,2.5h0c.25.86,1.02,1.45,1.91,1.45.2,0,.41-.03.6-.09,2.67-.75,5.11-2.18,7.08-4.14,2.23-.02,4.39-.44,6.41-1.16v-4.29c-1.05.5-2.22.9-3.52,1.14,1.37-3.28,1.8-6.87,1.25-10.38.76.03,1.51.09,2.27.15V.24ZM8.61,66.88c-.1-.83-.28-1.65-.53-2.45-.44-1.18-.96-2.33-1.54-3.45-1.33-2.66-3.15-6.37-2.26-8.27h.01c.59-.91,1.54-1.52,2.62-1.67.56-.09,1.13-.12,1.7-.1v15.94Zm4.67-28.36c-.83.35-1.33,1.21-1.21,2.11.7,5-1.89,6.27-2.15,6.38h-.05c-1.11-.15-2.24-.15-3.35,0-1.08-3.5-2.84-11.03-1.4-18.73.95,2.54,2.56,4.78,4.68,6.48,1.64,1.23,3.6,1.97,5.64,2.12-.62.66-1.35,1.22-2.16,1.64Zm4.78-5.73c-2.02.43-4.13,0-5.81-1.21-3.95-2.94-4.65-9.68-4.67-9.81-.02-.18-.06-.36-.13-.53.36-.72.75-1.43,1.19-2.13.27-.42.57-.83.86-1.24,1.06-.22,4.37-.71,6.77,1,1.86,1.32,2.88,3.77,3.06,7.27-.02,2.28-.45,4.53-1.27,6.65Zm4.12-12.61c-.72-1.83-1.95-3.41-3.54-4.56-1.57-1.08-3.4-1.74-5.31-1.91,2.31-1.98,4.89-3.62,7.67-4.86,1.14,1,4,3.85,3.83,6.87-.2,1.8-1.17,3.42-2.65,4.46Zm6.7-5.58c-.45-2.79-1.75-5.36-3.74-7.37,3.51-1.16,7.12-2,10.78-2.5h.08c0,2.68-.95,7.99-7.12,9.87Z"/>
      <path class="cls-1" d="m50,71.31c-1.09.15-2.15.51-3.1,1.1-1.62.77-3.53.61-5-.42l-.17-.11c-1.28-.74-2.78-.97-4.22-.64-.45.08-.92.08-1.37,0l.23-.24c.26-.27.53-.55.79-.86.7-.85.58-2.11-.27-2.81-.84-.71-2.1-.61-2.82.23,0,.01-.02.02-.03.04-.19.22-.39.43-.58.62-.94.76-1.52,1.88-1.59,3.08.07,1.11.61,2.15,1.48,2.85,1.51,1.42,3.41,1.19,4.66,1,.46-.07.94-.07,1.4,0,1.55,1.12,3.42,1.73,5.34,1.74,1.38-.01,2.75-.32,4-.92.11-.05.21-.11.31-.18.3-.18.61-.31.94-.41v-4.07Z"/>
      <path class="cls-1" d="m50,46.14l-.38-.46c-.69-.86-1.94-1.01-2.81-.32-.01.01-.03.02-.04.03-.85.7-.98,1.95-.29,2.81l2,2.41c.39.46.95.7,1.52.7v-5.17Z"/>
      <path class="cls-1" d="m50,84.11c-.86-.18-1.74-.26-2.63-.23-.98-.01-1.95.11-2.9.36-.45.14-.93.21-1.4.22-4.55-.89-8-.26-10.3,1.88-3.22,3-2.54,7.79-2.51,8,.02.13.05.26.1.38.54,1.26-.66,2.26-1.12,2.6-1.35.4-2.45,1.39-3,2.68-1.21,2.87.75,6.45,1,6.84.54.97,1.76,1.31,2.72.77.01,0,.03-.01.04-.02.96-.54,1.31-1.76.77-2.72-.51-.89-1.08-2.6-.77-3.34,0-.09.13-.31.73-.47.18-.05.36-.12.52-.22,1.61-1,4.28-3.7,3.17-7.24-.05-.62-.15-3,1.33-4.39,1.48-1.39,4.52-1.27,6.71-.84,1.09.13,2.19.04,3.24-.28.6-.16,1.23-.23,1.85-.22.84-.03,1.66.1,2.45.35v-4.11Z"/>
    </g>
  </g>
</svg>